<svg xmlns="http://www.w3.org/2000/svg" xmlns:xlink="http://www.w3.org/1999/xlink" width="500" zoomAndPan="magnify" viewBox="0 0 375 225" height="300" preserveAspectRatio="xMidYMid meet" version="1.0"><defs><g/><clipPath id="a55213f6cb"><path d="M 63.820312 28.199219 L 160 28.199219 L 160 74 L 63.820312 74 Z M 63.820312 28.199219 " clip-rule="nonzero"/></clipPath><clipPath id="1be0fd84d7"><path d="M 228 81 L 311.320312 81 L 311.320312 94 L 228 94 Z M 228 81 " clip-rule="nonzero"/></clipPath><clipPath id="02602cc365"><path d="M 265 94 L 295 94 L 295 101.699219 L 265 101.699219 Z M 265 94 " clip-rule="nonzero"/></clipPath></defs><rect x="-37.5" width="450" fill="#ffffff" y="-22.5" height="270" fill-opacity="1"/><rect x="-37.5" width="450" fill="#ffffff" y="-22.5" height="270" fill-opacity="1"/><rect x="-37.5" width="450" fill="#ffffff" y="-22.5" height="270" fill-opacity="1"/><g clip-path="url(#a55213f6cb)"><path fill="#f67600" d="M 154.195312 28.84375 C 155.980469 28.554688 157.769531 28.226562 159.582031 28.199219 C 154.355469 29.003906 149.191406 30.273438 144.253906 32.167969 C 139.703125 33.917969 135.402344 36.308594 131.519531 39.246094 C 127.90625 41.933594 124.667969 45.074219 121.234375 47.976562 C 117.371094 51.167969 113.144531 53.90625 108.777344 56.367188 C 99.414062 61.59375 89.402344 65.589844 79.210938 68.921875 C 74.820312 70.335938 70.390625 71.648438 65.914062 72.777344 C 65.25 72.921875 64.601562 73.152344 63.925781 73.191406 C 66.476562 72.574219 68.984375 71.777344 71.507812 71.039062 C 82.183594 67.773438 92.6875 63.835938 102.605469 58.699219 C 109.605469 55.058594 116.320312 50.785156 122.203125 45.523438 C 123.605469 44.3125 124.871094 42.960938 126.289062 41.769531 C 134.152344 34.996094 143.996094 30.683594 154.195312 28.84375 Z M 154.195312 28.84375 " fill-opacity="1" fill-rule="nonzero"/></g><path fill="#f67600" d="M 178.960938 29.671875 C 190.285156 28.933594 201.652344 29.804688 212.867188 31.382812 C 215.800781 31.605469 218.539062 32.726562 221.300781 33.640625 C 229.949219 36.589844 238.507812 39.835938 246.808594 43.667969 C 239.722656 43.039062 232.601562 42.828125 225.488281 42.8125 C 216.984375 42.773438 208.484375 43.019531 199.996094 43.4375 C 197.976562 43.546875 195.929688 43.613281 193.933594 43.242188 C 192.34375 42.953125 190.777344 42.351562 189.535156 41.304688 C 186.15625 38.289062 182.949219 35.070312 179.296875 32.375 C 178.667969 31.882812 177.882812 31.542969 177.429688 30.855469 C 177.253906 30.628906 177.222656 30.253906 177.492188 30.078125 C 177.914062 29.773438 178.457031 29.730469 178.960938 29.671875 Z M 178.960938 29.671875 " fill-opacity="1" fill-rule="nonzero"/><path fill="#f67600" d="M 160.832031 31.71875 C 163.722656 31.425781 166.683594 31.5625 169.484375 32.386719 C 173.203125 33.441406 176.5625 35.574219 179.292969 38.277344 C 181.589844 40.53125 183.457031 43.183594 185.015625 45.980469 C 173.828125 46.429688 162.636719 46.84375 151.449219 47.300781 C 149.910156 43.972656 147.925781 40.804688 145.304688 38.210938 C 144.875 37.761719 144.277344 37.402344 144.085938 36.777344 C 144.050781 36.285156 144.597656 36.070312 144.964844 35.890625 C 146.855469 35.097656 148.800781 34.445312 150.761719 33.84375 C 154.046875 32.847656 157.410156 32.054688 160.832031 31.71875 Z M 160.832031 31.71875 " fill-opacity="1" fill-rule="nonzero"/><path fill="#f67600" d="M 138.933594 38.667969 C 139.671875 38.304688 140.394531 37.800781 141.242188 37.765625 C 141.890625 37.835938 142.394531 38.3125 142.882812 38.703125 C 144.320312 39.988281 145.4375 41.582031 146.496094 43.175781 C 147.085938 44.085938 147.648438 45.011719 148.167969 45.964844 C 148.34375 46.3125 148.546875 46.734375 148.371094 47.121094 C 148.109375 47.515625 147.574219 47.46875 147.160156 47.480469 C 144.09375 47.441406 141.023438 47.496094 137.957031 47.585938 C 135.023438 47.714844 132.082031 47.871094 129.179688 48.34375 C 128.121094 48.523438 127.050781 48.722656 126.066406 49.167969 C 128.304688 45.371094 131.796875 42.449219 135.632812 40.335938 C 136.703125 39.726562 137.828125 39.210938 138.933594 38.667969 Z M 138.933594 38.667969 " fill-opacity="1" fill-rule="nonzero"/><path fill="#f67600" d="M 210.109375 45.324219 C 216.8125 45.164062 223.515625 44.992188 230.214844 44.683594 C 237.441406 44.4375 244.691406 44.539062 251.894531 45.203125 C 258.125 45.746094 264.347656 46.40625 270.550781 47.222656 C 273.820312 47.660156 277.085938 48.128906 280.324219 48.773438 C 285.121094 49.699219 289.96875 50.644531 294.464844 52.605469 C 295.816406 53.203125 297.140625 53.878906 298.394531 54.660156 C 295.839844 53.683594 293.222656 52.847656 290.535156 52.335938 C 289.390625 52.101562 288.226562 51.988281 287.082031 51.761719 C 285.785156 51.65625 284.480469 51.773438 283.183594 51.757812 C 279.140625 51.789062 275.085938 51.917969 271.078125 52.460938 C 270.554688 52.546875 269.945312 52.640625 269.621094 53.101562 C 269.332031 53.558594 269.550781 54.117188 269.757812 54.558594 C 271.148438 56.996094 272.394531 59.507812 273.683594 62 C 274.566406 63.753906 275.488281 65.492188 276.34375 67.257812 C 272.835938 61.695312 267.992188 56.984375 262.382812 53.527344 C 261.421875 52.941406 260.441406 52.382812 259.425781 51.90625 C 258.039062 51.269531 256.542969 50.925781 255.039062 50.6875 C 252.152344 50.316406 249.304688 49.703125 246.433594 49.230469 C 232.746094 46.875 218.871094 45.492188 204.972656 45.46875 C 206.683594 45.351562 208.398438 45.375 210.109375 45.324219 Z M 210.109375 45.324219 " fill-opacity="1" fill-rule="nonzero"/><path fill="#f67600" d="M 244.277344 52.878906 C 246.445312 53.332031 248.632812 54.113281 250.296875 55.617188 C 251.261719 56.472656 251.972656 57.609375 252.28125 58.859375 C 252.484375 59.679688 252.378906 60.601562 251.867188 61.292969 C 251.25 62.140625 250.261719 62.632812 249.285156 62.949219 C 250.179688 62.269531 251.105469 61.5 251.480469 60.402344 C 251.84375 59.378906 251.503906 58.25 250.875 57.402344 C 249.886719 56.066406 248.488281 55.101562 247.074219 54.265625 C 246.171875 53.742188 245.238281 53.28125 244.277344 52.878906 Z M 244.277344 52.878906 " fill-opacity="1" fill-rule="nonzero"/><path fill="#f67600" d="M 285.964844 52.871094 C 286.566406 52.796875 287.175781 52.765625 287.78125 52.832031 C 290.644531 53.40625 293.535156 53.898438 296.316406 54.808594 C 297.128906 55.074219 297.941406 55.402344 298.605469 55.953125 C 299.492188 56.644531 300.058594 57.65625 300.425781 58.703125 C 301.066406 60.578125 301.738281 62.449219 302.203125 64.378906 C 302.390625 65.203125 302.605469 66.121094 302.175781 66.90625 C 301.925781 67.414062 301.335938 67.660156 300.792969 67.625 C 295.328125 67.214844 289.847656 67 284.367188 66.910156 C 282.960938 66.855469 281.511719 67.046875 280.160156 66.582031 C 278.640625 66.0625 277.535156 64.8125 276.640625 63.539062 C 275.171875 61.421875 273.867188 59.195312 272.648438 56.929688 C 272.273438 56.164062 271.917969 55.285156 272.140625 54.425781 C 272.3125 53.792969 272.992188 53.511719 273.59375 53.472656 C 277.703125 53.070312 281.839844 53.074219 285.964844 52.871094 Z M 285.964844 52.871094 " fill-opacity="1" fill-rule="nonzero"/><path fill="#f67600" d="M 240.886719 53.011719 C 243.027344 52.84375 245.050781 53.804688 246.84375 54.867188 C 247.984375 55.558594 249.09375 56.375 249.871094 57.480469 C 250.5 58.375 250.820312 59.515625 250.617188 60.601562 C 250.324219 61.582031 249.421875 62.257812 248.46875 62.542969 C 247.25 62.898438 245.941406 62.851562 244.703125 62.613281 C 241.773438 62.050781 239.242188 59.9375 238.054688 57.234375 C 237.6875 56.421875 237.632812 55.402344 238.21875 54.675781 C 238.890625 53.863281 239.789062 53.109375 240.886719 53.011719 Z M 240.886719 53.011719 " fill-opacity="1" fill-rule="nonzero"/><path fill="#f67600" d="M 254.855469 53.066406 C 256.972656 52.710938 259.097656 53.535156 260.816406 54.71875 C 261.917969 55.46875 262.894531 56.382812 263.792969 57.355469 C 264.621094 58.199219 265.148438 59.300781 265.4375 60.433594 C 265.640625 61.34375 265.652344 62.402344 265.050781 63.171875 C 264.339844 64.0625 263.113281 64.351562 262.023438 64.328125 C 259.09375 64.050781 256.308594 62.472656 254.582031 60.101562 C 253.949219 59.253906 253.445312 58.3125 253.0625 57.328125 C 252.753906 56.425781 252.667969 55.398438 253.054688 54.503906 C 253.367188 53.765625 254.066406 53.210938 254.855469 53.066406 Z M 254.855469 53.066406 " fill-opacity="1" fill-rule="nonzero"/><path fill="#f67600" d="M 259.773438 53.386719 C 261.636719 54.394531 263.503906 55.449219 265.105469 56.851562 C 265.914062 57.578125 266.6875 58.394531 267.113281 59.410156 C 267.445312 60.167969 267.484375 61.078125 267.101562 61.824219 C 266.8125 62.4375 266.300781 62.902344 265.773438 63.3125 C 266.320312 62.316406 266.457031 61.113281 266.089844 60.035156 C 265.53125 58.308594 264.257812 56.933594 262.933594 55.742188 C 261.957031 54.855469 260.851562 54.132812 259.773438 53.386719 Z M 259.773438 53.386719 " fill-opacity="1" fill-rule="nonzero"/><path fill="#f67600" d="M 300.972656 57.332031 C 301.023438 57.300781 301.128906 57.246094 301.183594 57.21875 C 301.703125 57.328125 302.101562 57.714844 302.476562 58.070312 C 303.558594 59.214844 304.3125 60.621094 304.949219 62.046875 C 305.371094 63.039062 305.839844 64.035156 305.992188 65.117188 C 306.035156 65.578125 306.082031 66.128906 305.734375 66.496094 C 305.519531 66.636719 305.28125 66.460938 305.121094 66.324219 C 303.710938 64.945312 303.011719 63.050781 302.121094 61.335938 C 301.652344 60.335938 301.148438 59.34375 300.886719 58.269531 C 300.839844 57.964844 300.746094 57.589844 300.972656 57.332031 Z M 300.972656 57.332031 " fill-opacity="1" fill-rule="nonzero"/><path fill="#f67600" d="M 206.507812 60.734375 C 208.878906 60.3125 211.382812 60.332031 213.652344 61.210938 C 215.640625 61.953125 217.363281 63.308594 218.6875 64.949219 C 220.339844 66.992188 221.445312 69.429688 222.175781 71.9375 C 222.964844 74.6875 223.34375 77.554688 223.304688 80.417969 C 223.15625 82.964844 222.816406 85.511719 222.140625 87.980469 C 221.496094 90.292969 220.542969 92.550781 219.078125 94.472656 C 217.789062 96.171875 216.078125 97.566406 214.097656 98.386719 C 211.851562 99.332031 209.34375 99.558594 206.9375 99.246094 C 209.03125 99.042969 211.105469 98.371094 212.800781 97.105469 C 214.71875 95.695312 216.101562 93.671875 217.046875 91.515625 C 218.273438 88.710938 218.886719 85.679688 219.242188 82.65625 C 219.628906 79.710938 219.574219 76.71875 219.203125 73.777344 C 218.878906 71.351562 218.285156 68.925781 217.148438 66.742188 C 216.175781 64.863281 214.742188 63.183594 212.890625 62.113281 C 210.980469 60.976562 208.710938 60.59375 206.507812 60.734375 Z M 206.507812 60.734375 " fill-opacity="1" fill-rule="nonzero"/><path fill="#f67600" d="M 127.316406 67.285156 C 128.414062 69.160156 129.597656 71.019531 131.144531 72.566406 C 132.046875 73.453125 133.089844 74.214844 134.28125 74.667969 C 135.53125 75.160156 136.886719 75.285156 138.214844 75.378906 C 154.335938 76.351562 170.460938 77.261719 186.582031 78.199219 C 187.558594 78.289062 188.546875 78.242188 189.515625 78.414062 C 181.882812 78.242188 174.242188 78.171875 166.601562 78.035156 C 156.792969 77.894531 146.984375 77.730469 137.171875 77.589844 C 135.902344 77.535156 134.613281 77.652344 133.363281 77.386719 C 131.488281 76.96875 130.023438 75.417969 129.441406 73.636719 C 128.742188 71.515625 127.984375 69.414062 127.316406 67.285156 Z M 127.316406 67.285156 " fill-opacity="1" fill-rule="nonzero"/><path fill="#f67600" d="M 138.878906 80.5625 C 139.445312 80.496094 140.007812 80.359375 140.582031 80.363281 C 151.226562 80.78125 161.875 81.164062 172.523438 81.476562 C 176.382812 81.570312 180.238281 81.699219 184.09375 81.710938 C 184.527344 81.722656 184.957031 81.761719 185.386719 81.820312 C 183.855469 81.777344 182.332031 81.945312 180.800781 81.964844 C 171.125 82.355469 161.4375 82.382812 151.757812 82.339844 C 144.125 82.300781 136.496094 82.171875 128.867188 81.992188 C 132.203125 81.488281 135.542969 81.042969 138.878906 80.5625 Z M 138.878906 80.5625 " fill-opacity="1" fill-rule="nonzero"/><g clip-path="url(#1be0fd84d7)"><path fill="#f67600" d="M 228.351562 81.730469 C 228.4375 81.5 228.695312 81.539062 228.894531 81.539062 C 234.605469 81.8125 240.320312 82.054688 246.039062 81.921875 C 246.933594 83.675781 248.460938 85.117188 250.328125 85.792969 C 251.535156 86.253906 252.84375 86.4375 254.132812 86.378906 C 264.457031 87.027344 274.796875 87.5625 285.144531 87.417969 C 288.832031 87.28125 292.511719 87.058594 296.183594 86.722656 C 299.039062 86.445312 301.890625 86.109375 304.699219 85.519531 C 305.90625 85.25 307.121094 84.957031 308.265625 84.480469 C 308.859375 84.21875 309.484375 83.925781 309.847656 83.363281 C 310.4375 84.117188 310.703125 85.054688 310.972656 85.957031 C 311.222656 86.8125 311.054688 87.785156 310.464844 88.464844 C 309.609375 89.460938 308.347656 89.964844 307.128906 90.375 C 304.59375 91.171875 301.941406 91.519531 299.308594 91.828125 C 292.46875 92.542969 285.589844 92.746094 278.722656 92.976562 C 264.515625 93.4375 250.289062 93.019531 236.128906 91.828125 C 233.84375 91.621094 231.5625 91.414062 229.289062 91.144531 C 229.109375 91.097656 228.816406 91.125 228.789062 90.882812 C 228.792969 87.832031 228.628906 84.769531 228.351562 81.730469 Z M 228.351562 81.730469 " fill-opacity="1" fill-rule="nonzero"/></g><path fill="#f67600" d="M 218.386719 97.015625 C 222.238281 93.714844 224.210938 88.640625 224.429688 83.667969 C 224.769531 85.039062 224.757812 86.46875 224.847656 87.875 C 224.890625 89.742188 224.953125 91.617188 224.84375 93.484375 C 224.921875 93.871094 225.40625 93.972656 225.742188 94.046875 C 227.382812 94.296875 229.046875 94.273438 230.695312 94.402344 C 230.230469 95.171875 229.53125 95.765625 228.898438 96.394531 C 227.917969 97.328125 226.894531 98.222656 225.847656 99.082031 C 224.644531 100.054688 222.996094 99.988281 221.542969 100.171875 C 218.410156 100.390625 215.253906 100.625 212.117188 100.339844 C 214.40625 99.675781 216.582031 98.570312 218.386719 97.015625 Z M 218.386719 97.015625 " fill-opacity="1" fill-rule="nonzero"/><path fill="#f67600" d="M 104.167969 86.234375 C 107.070312 86.457031 109.957031 86.824219 112.855469 87.089844 C 126.253906 88.4375 139.65625 89.71875 153.074219 90.878906 C 162.046875 91.644531 171.023438 92.378906 180.015625 92.894531 C 182.222656 92.984375 184.421875 93.148438 186.632812 93.167969 C 183.070312 93.21875 179.503906 93.121094 175.941406 93.09375 C 166.917969 93.019531 157.890625 92.945312 148.867188 92.910156 C 148.21875 92.894531 147.574219 92.929688 146.929688 92.882812 C 132.671875 90.679688 118.425781 88.425781 104.167969 86.234375 Z M 104.167969 86.234375 " fill-opacity="1" fill-rule="nonzero"/><g clip-path="url(#02602cc365)"><path fill="#f67600" d="M 286.460938 95.113281 C 289.253906 95.035156 292.042969 94.910156 294.828125 94.675781 C 294.351562 95.542969 293.535156 96.15625 292.789062 96.785156 C 289.324219 99.46875 285.089844 101.28125 280.683594 101.535156 C 277.867188 101.695312 275.023438 101.144531 272.476562 99.945312 C 270.019531 98.808594 267.839844 97.128906 265.964844 95.195312 C 272.796875 95.277344 279.632812 95.292969 286.460938 95.113281 Z M 286.460938 95.113281 " fill-opacity="1" fill-rule="nonzero"/></g><g fill="#ed6e1f" fill-opacity="1"><g transform="translate(44.602772, 159.947113)"><g><path d="M 20.484375 0.5 C 16.773438 0.5 13.597656 -0.25 10.953125 -1.75 C 8.304688 -3.25 6.273438 -5.367188 4.859375 -8.109375 C 3.441406 -10.859375 2.734375 -14.109375 2.734375 -17.859375 C 2.734375 -21.597656 3.441406 -24.832031 4.859375 -27.5625 C 6.273438 -30.289062 8.304688 -32.40625 10.953125 -33.90625 C 13.597656 -35.40625 16.773438 -36.15625 20.484375 -36.15625 C 22.335938 -36.15625 24.15625 -35.921875 25.9375 -35.453125 C 27.726562 -34.984375 29.300781 -34.3125 30.65625 -33.4375 C 31.53125 -32.863281 32.050781 -32.175781 32.21875 -31.375 C 32.382812 -30.582031 32.28125 -29.859375 31.90625 -29.203125 C 31.539062 -28.546875 30.988281 -28.109375 30.25 -27.890625 C 29.507812 -27.671875 28.679688 -27.863281 27.765625 -28.46875 C 26.722656 -29.144531 25.59375 -29.632812 24.375 -29.9375 C 23.164062 -30.238281 21.9375 -30.390625 20.6875 -30.390625 C 17.082031 -30.390625 14.332031 -29.300781 12.4375 -27.125 C 10.550781 -24.957031 9.609375 -21.867188 9.609375 -17.859375 C 9.609375 -13.835938 10.550781 -10.734375 12.4375 -8.546875 C 14.332031 -6.359375 17.082031 -5.265625 20.6875 -5.265625 C 21.96875 -5.265625 23.226562 -5.421875 24.46875 -5.734375 C 25.71875 -6.054688 26.898438 -6.554688 28.015625 -7.234375 C 28.929688 -7.804688 29.742188 -7.988281 30.453125 -7.78125 C 31.160156 -7.582031 31.691406 -7.171875 32.046875 -6.546875 C 32.398438 -5.921875 32.507812 -5.238281 32.375 -4.5 C 32.238281 -3.757812 31.78125 -3.101562 31 -2.53125 C 29.65625 -1.550781 28.046875 -0.800781 26.171875 -0.28125 C 24.296875 0.238281 22.398438 0.5 20.484375 0.5 Z M 20.484375 0.5 "/></g></g></g><g fill="#ed6e1f" fill-opacity="1"><g transform="translate(86.484925, 159.947113)"><g><path d="M 4.25 0.40625 C 3.070312 0.40625 2.226562 0.00390625 1.71875 -0.796875 C 1.21875 -1.609375 1.234375 -2.59375 1.765625 -3.75 L 15.125 -33.328125 C 15.5625 -34.304688 16.09375 -35.003906 16.71875 -35.421875 C 17.34375 -35.847656 18.054688 -36.0625 18.859375 -36.0625 C 19.640625 -36.0625 20.34375 -35.847656 20.96875 -35.421875 C 21.59375 -35.003906 22.125 -34.304688 22.5625 -33.328125 L 35.96875 -3.75 C 36.5 -2.5625 36.53125 -1.570312 36.0625 -0.78125 C 35.59375 0.0078125 34.785156 0.40625 33.640625 0.40625 C 32.691406 0.40625 31.957031 0.175781 31.4375 -0.28125 C 30.914062 -0.738281 30.453125 -1.4375 30.046875 -2.375 L 27.515625 -8.25 L 10.109375 -8.25 L 7.640625 -2.375 C 7.203125 -1.394531 6.742188 -0.6875 6.265625 -0.25 C 5.796875 0.1875 5.125 0.40625 4.25 0.40625 Z M 18.765625 -28.625 L 12.34375 -13.40625 L 25.28125 -13.40625 L 18.859375 -28.625 Z M 18.765625 -28.625 "/></g></g></g><g fill="#ed6e1f" fill-opacity="1"><g transform="translate(131.604225, 159.947113)"><g><path d="M 7.125 0.40625 C 4.96875 0.40625 3.890625 -0.707031 3.890625 -2.9375 L 3.890625 -32.375 C 3.890625 -34.5625 4.988281 -35.65625 7.1875 -35.65625 L 19.375 -35.65625 C 23.28125 -35.65625 26.296875 -34.71875 28.421875 -32.84375 C 30.546875 -30.976562 31.609375 -28.359375 31.609375 -24.984375 C 31.609375 -22.316406 30.914062 -20.113281 29.53125 -18.375 C 28.15625 -16.644531 26.164062 -15.476562 23.5625 -14.875 C 25.289062 -14.332031 26.707031 -13.03125 27.8125 -10.96875 L 31.609375 -3.9375 C 32.179688 -2.863281 32.289062 -1.867188 31.9375 -0.953125 C 31.582031 -0.046875 30.710938 0.40625 29.328125 0.40625 C 28.421875 0.40625 27.679688 0.210938 27.109375 -0.171875 C 26.535156 -0.566406 26.03125 -1.164062 25.59375 -1.96875 L 20.484375 -11.375 C 19.878906 -12.519531 19.160156 -13.285156 18.328125 -13.671875 C 17.503906 -14.066406 16.453125 -14.265625 15.171875 -14.265625 L 10.375 -14.265625 L 10.375 -2.9375 C 10.375 -0.707031 9.289062 0.40625 7.125 0.40625 Z M 10.375 -19.0625 L 18.265625 -19.0625 C 22.984375 -19.0625 25.34375 -20.984375 25.34375 -24.828125 C 25.34375 -28.640625 22.984375 -30.546875 18.265625 -30.546875 L 10.375 -30.546875 Z M 10.375 -19.0625 "/></g></g></g><g fill="#000000" fill-opacity="1"><g transform="translate(173.783997, 159.947113)"><g><path d="M 7.125 0.40625 C 4.96875 0.40625 3.890625 -0.707031 3.890625 -2.9375 L 3.890625 -32.375 C 3.890625 -34.5625 4.988281 -35.65625 7.1875 -35.65625 L 19.375 -35.65625 C 23.28125 -35.65625 26.296875 -34.71875 28.421875 -32.84375 C 30.546875 -30.976562 31.609375 -28.359375 31.609375 -24.984375 C 31.609375 -22.316406 30.914062 -20.113281 29.53125 -18.375 C 28.15625 -16.644531 26.164062 -15.476562 23.5625 -14.875 C 25.289062 -14.332031 26.707031 -13.03125 27.8125 -10.96875 L 31.609375 -3.9375 C 32.179688 -2.863281 32.289062 -1.867188 31.9375 -0.953125 C 31.582031 -0.046875 30.710938 0.40625 29.328125 0.40625 C 28.421875 0.40625 27.679688 0.210938 27.109375 -0.171875 C 26.535156 -0.566406 26.03125 -1.164062 25.59375 -1.96875 L 20.484375 -11.375 C 19.878906 -12.519531 19.160156 -13.285156 18.328125 -13.671875 C 17.503906 -14.066406 16.453125 -14.265625 15.171875 -14.265625 L 10.375 -14.265625 L 10.375 -2.9375 C 10.375 -0.707031 9.289062 0.40625 7.125 0.40625 Z M 10.375 -19.0625 L 18.265625 -19.0625 C 22.984375 -19.0625 25.34375 -20.984375 25.34375 -24.828125 C 25.34375 -28.640625 22.984375 -30.546875 18.265625 -30.546875 L 10.375 -30.546875 Z M 10.375 -19.0625 "/></g></g></g><g fill="#000000" fill-opacity="1"><g transform="translate(215.969618, 159.947113)"><g><path d="M 7.328125 0 C 5.035156 0 3.890625 -1.144531 3.890625 -3.4375 L 3.890625 -32.21875 C 3.890625 -34.507812 5.035156 -35.65625 7.328125 -35.65625 L 25.390625 -35.65625 C 27.140625 -35.65625 28.015625 -34.8125 28.015625 -33.125 C 28.015625 -31.375 27.140625 -30.5 25.390625 -30.5 L 10.109375 -30.5 L 10.109375 -20.6875 L 24.28125 -20.6875 C 26.03125 -20.6875 26.90625 -19.828125 26.90625 -18.109375 C 26.90625 -16.390625 26.03125 -15.53125 24.28125 -15.53125 L 10.109375 -15.53125 L 10.109375 -5.15625 L 25.390625 -5.15625 C 27.140625 -5.15625 28.015625 -4.296875 28.015625 -2.578125 C 28.015625 -0.859375 27.140625 0 25.390625 0 Z M 7.328125 0 "/></g></g></g><g fill="#000000" fill-opacity="1"><g transform="translate(253.653585, 159.947113)"><g><path d="M 6.921875 0.40625 C 4.898438 0.40625 3.890625 -0.640625 3.890625 -2.734375 L 3.890625 -32.828125 C 3.890625 -33.867188 4.148438 -34.664062 4.671875 -35.21875 C 5.203125 -35.78125 5.890625 -36.0625 6.734375 -36.0625 C 7.503906 -36.0625 8.082031 -35.914062 8.46875 -35.625 C 8.851562 -35.34375 9.316406 -34.863281 9.859375 -34.1875 L 27.921875 -10.765625 L 27.921875 -32.984375 C 27.921875 -35.035156 28.929688 -36.0625 30.953125 -36.0625 C 32.941406 -36.0625 33.9375 -35.035156 33.9375 -32.984375 L 33.9375 -2.625 C 33.9375 -1.6875 33.695312 -0.945312 33.21875 -0.40625 C 32.75 0.132812 32.113281 0.40625 31.3125 0.40625 C 30.53125 0.40625 29.910156 0.253906 29.453125 -0.046875 C 29.003906 -0.347656 28.507812 -0.835938 27.96875 -1.515625 L 9.90625 -24.984375 L 9.90625 -2.734375 C 9.90625 -0.640625 8.910156 0.40625 6.921875 0.40625 Z M 6.921875 0.40625 "/></g></g></g><g fill="#000000" fill-opacity="1"><g transform="translate(298.975205, 159.947113)"><g><path d="M 15.734375 0.40625 C 13.578125 0.40625 12.5 -0.707031 12.5 -2.9375 L 12.5 -30.25 L 2.625 -30.25 C 0.769531 -30.25 -0.15625 -31.160156 -0.15625 -32.984375 C -0.15625 -34.765625 0.769531 -35.65625 2.625 -35.65625 L 28.828125 -35.65625 C 30.679688 -35.65625 31.609375 -34.765625 31.609375 -32.984375 C 31.609375 -31.160156 30.679688 -30.25 28.828125 -30.25 L 18.96875 -30.25 L 18.96875 -2.9375 C 18.96875 -0.707031 17.890625 0.40625 15.734375 0.40625 Z M 15.734375 0.40625 "/></g></g></g><g fill="#000000" fill-opacity="1"><g transform="translate(99.616198, 190.344069)"><g><path d="M 3.8125 -7.875 L 3.8125 0 L 2.5625 0 L 2.5625 -18.0625 L 6.859375 -18.0625 C 9.097656 -18.0625 10.75 -17.644531 11.8125 -16.8125 C 12.882812 -15.988281 13.421875 -14.742188 13.421875 -13.078125 C 13.421875 -11.867188 13.101562 -10.847656 12.46875 -10.015625 C 11.832031 -9.179688 10.863281 -8.582031 9.5625 -8.21875 L 14.46875 0 L 12.953125 0 L 8.296875 -7.875 Z M 3.8125 -8.953125 L 7.265625 -8.953125 C 8.785156 -8.953125 9.960938 -9.289062 10.796875 -9.96875 C 11.640625 -10.65625 12.0625 -11.660156 12.0625 -12.984375 C 12.0625 -14.359375 11.648438 -15.359375 10.828125 -15.984375 C 10.003906 -16.609375 8.664062 -16.921875 6.8125 -16.921875 L 3.8125 -16.921875 Z M 3.8125 -8.953125 "/></g></g></g><g fill="#000000" fill-opacity="1"><g transform="translate(114.644604, 190.344069)"><g><path d="M 10.40625 0 L 10.09375 -2.125 L 10 -2.125 C 9.320312 -1.257812 8.625 -0.644531 7.90625 -0.28125 C 7.195312 0.0703125 6.359375 0.25 5.390625 0.25 C 4.066406 0.25 3.035156 -0.0859375 2.296875 -0.765625 C 1.566406 -1.441406 1.203125 -2.375 1.203125 -3.5625 C 1.203125 -4.875 1.75 -5.890625 2.84375 -6.609375 C 3.9375 -7.335938 5.515625 -7.722656 7.578125 -7.765625 L 10.140625 -7.84375 L 10.140625 -8.734375 C 10.140625 -10.003906 9.878906 -10.960938 9.359375 -11.609375 C 8.835938 -12.265625 8.003906 -12.59375 6.859375 -12.59375 C 5.609375 -12.59375 4.316406 -12.25 2.984375 -11.5625 L 2.53125 -12.625 C 4.007812 -13.3125 5.46875 -13.65625 6.90625 -13.65625 C 8.375 -13.65625 9.472656 -13.269531 10.203125 -12.5 C 10.929688 -11.738281 11.296875 -10.550781 11.296875 -8.9375 L 11.296875 0 Z M 5.453125 -0.859375 C 6.890625 -0.859375 8.019531 -1.269531 8.84375 -2.09375 C 9.675781 -2.914062 10.09375 -4.054688 10.09375 -5.515625 L 10.09375 -6.828125 L 7.75 -6.734375 C 5.863281 -6.640625 4.515625 -6.34375 3.703125 -5.84375 C 2.898438 -5.34375 2.5 -4.566406 2.5 -3.515625 C 2.5 -2.679688 2.753906 -2.03125 3.265625 -1.5625 C 3.785156 -1.09375 4.515625 -0.859375 5.453125 -0.859375 Z M 5.453125 -0.859375 "/></g></g></g><g fill="#000000" fill-opacity="1"><g transform="translate(128.042979, 190.344069)"><g><path d="M 7.984375 0.25 C 5.921875 0.25 4.414062 -0.523438 3.46875 -2.078125 L 3.390625 -2.078125 L 3.421875 -1.03125 C 3.453125 -0.425781 3.46875 0.238281 3.46875 0.96875 L 3.46875 6.078125 L 2.25 6.078125 L 2.25 -13.421875 L 3.28125 -13.421875 L 3.515625 -11.515625 L 3.59375 -11.515625 C 4.519531 -12.960938 5.992188 -13.6875 8.015625 -13.6875 C 9.828125 -13.6875 11.207031 -13.085938 12.15625 -11.890625 C 13.113281 -10.703125 13.59375 -8.972656 13.59375 -6.703125 C 13.59375 -4.492188 13.085938 -2.78125 12.078125 -1.5625 C 11.078125 -0.351562 9.710938 0.25 7.984375 0.25 Z M 7.96875 -0.84375 C 9.34375 -0.84375 10.40625 -1.351562 11.15625 -2.375 C 11.914062 -3.394531 12.296875 -4.820312 12.296875 -6.65625 C 12.296875 -10.601562 10.867188 -12.578125 8.015625 -12.578125 C 6.453125 -12.578125 5.300781 -12.144531 4.5625 -11.28125 C 3.832031 -10.425781 3.46875 -9.023438 3.46875 -7.078125 L 3.46875 -6.6875 C 3.46875 -4.582031 3.816406 -3.082031 4.515625 -2.1875 C 5.222656 -1.289062 6.375 -0.84375 7.96875 -0.84375 Z M 7.96875 -0.84375 "/></g></g></g><g fill="#000000" fill-opacity="1"><g transform="translate(143.096082, 190.344069)"><g><path d="M 3.46875 0 L 2.25 0 L 2.25 -13.421875 L 3.46875 -13.421875 Z M 2.078125 -17.15625 C 2.078125 -17.945312 2.335938 -18.34375 2.859375 -18.34375 C 3.109375 -18.34375 3.304688 -18.238281 3.453125 -18.03125 C 3.597656 -17.820312 3.671875 -17.53125 3.671875 -17.15625 C 3.671875 -16.78125 3.597656 -16.484375 3.453125 -16.265625 C 3.304688 -16.054688 3.109375 -15.953125 2.859375 -15.953125 C 2.335938 -15.953125 2.078125 -16.351562 2.078125 -17.15625 Z M 2.078125 -17.15625 "/></g></g></g><g fill="#000000" fill-opacity="1"><g transform="translate(148.81355, 190.344069)"><g><path d="M 7.171875 -13.6875 C 8.140625 -13.6875 8.976562 -13.507812 9.6875 -13.15625 C 10.394531 -12.800781 11.03125 -12.195312 11.59375 -11.34375 L 11.65625 -11.34375 C 11.613281 -12.375 11.59375 -13.390625 11.59375 -14.390625 L 11.59375 -19.21875 L 12.796875 -19.21875 L 12.796875 0 L 12 0 L 11.6875 -2.046875 L 11.59375 -2.046875 C 10.5625 -0.515625 9.09375 0.25 7.1875 0.25 C 5.332031 0.25 3.914062 -0.328125 2.9375 -1.484375 C 1.957031 -2.640625 1.46875 -4.316406 1.46875 -6.515625 C 1.46875 -8.835938 1.953125 -10.613281 2.921875 -11.84375 C 3.898438 -13.070312 5.316406 -13.6875 7.171875 -13.6875 Z M 7.171875 -12.578125 C 5.703125 -12.578125 4.597656 -12.0625 3.859375 -11.03125 C 3.117188 -10 2.75 -8.503906 2.75 -6.546875 C 2.75 -2.742188 4.226562 -0.84375 7.1875 -0.84375 C 8.707031 -0.84375 9.820312 -1.28125 10.53125 -2.15625 C 11.238281 -3.039062 11.59375 -4.492188 11.59375 -6.515625 L 11.59375 -6.734375 C 11.59375 -8.804688 11.242188 -10.296875 10.546875 -11.203125 C 9.847656 -12.117188 8.722656 -12.578125 7.171875 -12.578125 Z M 7.171875 -12.578125 "/></g></g></g><g fill="#000000" fill-opacity="1"><g transform="translate(163.866653, 190.344069)"><g><path d="M 7.671875 0.25 C 5.722656 0.25 4.203125 -0.347656 3.109375 -1.546875 C 2.015625 -2.753906 1.46875 -4.441406 1.46875 -6.609375 C 1.46875 -8.742188 1.992188 -10.457031 3.046875 -11.75 C 4.097656 -13.039062 5.519531 -13.6875 7.3125 -13.6875 C 8.894531 -13.6875 10.140625 -13.132812 11.046875 -12.03125 C 11.960938 -10.925781 12.421875 -9.425781 12.421875 -7.53125 L 12.421875 -6.546875 L 2.75 -6.546875 C 2.769531 -4.703125 3.203125 -3.289062 4.046875 -2.3125 C 4.890625 -1.34375 6.097656 -0.859375 7.671875 -0.859375 C 8.429688 -0.859375 9.101562 -0.910156 9.6875 -1.015625 C 10.269531 -1.128906 11.003906 -1.363281 11.890625 -1.71875 L 11.890625 -0.609375 C 11.140625 -0.273438 10.441406 -0.0507812 9.796875 0.0625 C 9.148438 0.1875 8.441406 0.25 7.671875 0.25 Z M 7.3125 -12.59375 C 6.019531 -12.59375 4.984375 -12.164062 4.203125 -11.3125 C 3.421875 -10.46875 2.960938 -9.242188 2.828125 -7.640625 L 11.125 -7.640625 C 11.125 -9.191406 10.785156 -10.40625 10.109375 -11.28125 C 9.441406 -12.15625 8.507812 -12.59375 7.3125 -12.59375 Z M 7.3125 -12.59375 "/></g></g></g><g fill="#000000" fill-opacity="1"><g transform="translate(177.74662, 190.344069)"><g/></g></g><g fill="#000000" fill-opacity="1"><g transform="translate(184.316142, 190.344069)"><g><path d="M 1.515625 -4.578125 C 1.515625 -5.710938 1.816406 -6.679688 2.421875 -7.484375 C 3.023438 -8.285156 4.15625 -9.128906 5.8125 -10.015625 L 4.890625 -11.03125 C 4.347656 -11.613281 3.941406 -12.1875 3.671875 -12.75 C 3.410156 -13.3125 3.28125 -13.894531 3.28125 -14.5 C 3.28125 -15.675781 3.671875 -16.609375 4.453125 -17.296875 C 5.242188 -17.992188 6.304688 -18.34375 7.640625 -18.34375 C 8.910156 -18.34375 9.914062 -18.007812 10.65625 -17.34375 C 11.40625 -16.675781 11.78125 -15.753906 11.78125 -14.578125 C 11.78125 -13.710938 11.488281 -12.914062 10.90625 -12.1875 C 10.332031 -11.46875 9.296875 -10.671875 7.796875 -9.796875 L 13.375 -4.15625 C 13.875 -4.75 14.300781 -5.394531 14.65625 -6.09375 C 15.007812 -6.789062 15.320312 -7.617188 15.59375 -8.578125 L 16.78125 -8.578125 C 16.257812 -6.546875 15.394531 -4.789062 14.1875 -3.3125 L 17.484375 0 L 15.8125 0 L 13.421875 -2.4375 C 12.671875 -1.695312 12 -1.15625 11.40625 -0.8125 C 10.8125 -0.46875 10.160156 -0.203125 9.453125 -0.015625 C 8.753906 0.160156 7.953125 0.25 7.046875 0.25 C 5.328125 0.25 3.972656 -0.171875 2.984375 -1.015625 C 2.003906 -1.867188 1.515625 -3.054688 1.515625 -4.578125 Z M 7.140625 -0.859375 C 8.191406 -0.859375 9.15625 -1.035156 10.03125 -1.390625 C 10.90625 -1.753906 11.769531 -2.363281 12.625 -3.21875 L 6.65625 -9.203125 C 5.539062 -8.609375 4.734375 -8.101562 4.234375 -7.6875 C 3.734375 -7.269531 3.367188 -6.816406 3.140625 -6.328125 C 2.910156 -5.847656 2.796875 -5.28125 2.796875 -4.625 C 2.796875 -3.445312 3.175781 -2.523438 3.9375 -1.859375 C 4.707031 -1.191406 5.773438 -0.859375 7.140625 -0.859375 Z M 4.609375 -14.53125 C 4.609375 -13.875 4.769531 -13.269531 5.09375 -12.71875 C 5.425781 -12.164062 6.054688 -11.453125 6.984375 -10.578125 C 8.285156 -11.273438 9.191406 -11.925781 9.703125 -12.53125 C 10.210938 -13.144531 10.46875 -13.84375 10.46875 -14.625 C 10.46875 -15.394531 10.210938 -16.019531 9.703125 -16.5 C 9.191406 -16.988281 8.503906 -17.234375 7.640625 -17.234375 C 6.691406 -17.234375 5.945312 -16.992188 5.40625 -16.515625 C 4.875 -16.035156 4.609375 -15.375 4.609375 -14.53125 Z M 4.609375 -14.53125 "/></g></g></g><g fill="#000000" fill-opacity="1"><g transform="translate(202.345281, 190.344069)"><g/></g></g><g fill="#000000" fill-opacity="1"><g transform="translate(208.914803, 190.344069)"><g><path d="M 3.8125 0 L 2.5625 0 L 2.5625 -18.0625 L 12.453125 -18.0625 L 12.453125 -16.890625 L 3.8125 -16.890625 L 3.8125 -9.234375 L 11.96875 -9.234375 L 11.96875 -8.0625 L 3.8125 -8.0625 Z M 3.8125 0 "/></g></g></g><g fill="#000000" fill-opacity="1"><g transform="translate(221.609292, 190.344069)"><g><path d="M 3.46875 0 L 2.25 0 L 2.25 -13.421875 L 3.46875 -13.421875 Z M 2.078125 -17.15625 C 2.078125 -17.945312 2.335938 -18.34375 2.859375 -18.34375 C 3.109375 -18.34375 3.304688 -18.238281 3.453125 -18.03125 C 3.597656 -17.820312 3.671875 -17.53125 3.671875 -17.15625 C 3.671875 -16.78125 3.597656 -16.484375 3.453125 -16.265625 C 3.304688 -16.054688 3.109375 -15.953125 2.859375 -15.953125 C 2.335938 -15.953125 2.078125 -16.351562 2.078125 -17.15625 Z M 2.078125 -17.15625 "/></g></g></g><g fill="#000000" fill-opacity="1"><g transform="translate(227.32676, 190.344069)"><g><path d="M 10.40625 0 L 10.09375 -2.125 L 10 -2.125 C 9.320312 -1.257812 8.625 -0.644531 7.90625 -0.28125 C 7.195312 0.0703125 6.359375 0.25 5.390625 0.25 C 4.066406 0.25 3.035156 -0.0859375 2.296875 -0.765625 C 1.566406 -1.441406 1.203125 -2.375 1.203125 -3.5625 C 1.203125 -4.875 1.75 -5.890625 2.84375 -6.609375 C 3.9375 -7.335938 5.515625 -7.722656 7.578125 -7.765625 L 10.140625 -7.84375 L 10.140625 -8.734375 C 10.140625 -10.003906 9.878906 -10.960938 9.359375 -11.609375 C 8.835938 -12.265625 8.003906 -12.59375 6.859375 -12.59375 C 5.609375 -12.59375 4.316406 -12.25 2.984375 -11.5625 L 2.53125 -12.625 C 4.007812 -13.3125 5.46875 -13.65625 6.90625 -13.65625 C 8.375 -13.65625 9.472656 -13.269531 10.203125 -12.5 C 10.929688 -11.738281 11.296875 -10.550781 11.296875 -8.9375 L 11.296875 0 Z M 5.453125 -0.859375 C 6.890625 -0.859375 8.019531 -1.269531 8.84375 -2.09375 C 9.675781 -2.914062 10.09375 -4.054688 10.09375 -5.515625 L 10.09375 -6.828125 L 7.75 -6.734375 C 5.863281 -6.640625 4.515625 -6.34375 3.703125 -5.84375 C 2.898438 -5.34375 2.5 -4.566406 2.5 -3.515625 C 2.5 -2.679688 2.753906 -2.03125 3.265625 -1.5625 C 3.785156 -1.09375 4.515625 -0.859375 5.453125 -0.859375 Z M 5.453125 -0.859375 "/></g></g></g><g fill="#000000" fill-opacity="1"><g transform="translate(240.725134, 190.344069)"><g><path d="M 7.921875 -13.6875 C 9.796875 -13.6875 11.207031 -13.09375 12.15625 -11.90625 C 13.113281 -10.726562 13.59375 -9.003906 13.59375 -6.734375 C 13.59375 -4.503906 13.085938 -2.78125 12.078125 -1.5625 C 11.078125 -0.351562 9.675781 0.25 7.875 0.25 C 6.914062 0.25 6.050781 0.0507812 5.28125 -0.34375 C 4.519531 -0.738281 3.914062 -1.300781 3.46875 -2.03125 L 3.359375 -2.03125 L 3.015625 0 L 2.25 0 L 2.25 -19.21875 L 3.46875 -19.21875 L 3.46875 -14.390625 C 3.46875 -13.660156 3.453125 -12.992188 3.421875 -12.390625 L 3.390625 -11.34375 L 3.46875 -11.34375 C 3.976562 -12.144531 4.59375 -12.734375 5.3125 -13.109375 C 6.03125 -13.492188 6.898438 -13.6875 7.921875 -13.6875 Z M 7.890625 -12.578125 C 6.304688 -12.578125 5.171875 -12.125 4.484375 -11.21875 C 3.804688 -10.3125 3.46875 -8.816406 3.46875 -6.734375 L 3.46875 -6.515625 C 3.46875 -4.492188 3.820312 -3.039062 4.53125 -2.15625 C 5.25 -1.28125 6.363281 -0.84375 7.875 -0.84375 C 9.332031 -0.84375 10.429688 -1.351562 11.171875 -2.375 C 11.921875 -3.40625 12.296875 -4.863281 12.296875 -6.75 C 12.296875 -10.632812 10.828125 -12.578125 7.890625 -12.578125 Z M 7.890625 -12.578125 "/></g></g></g><g fill="#000000" fill-opacity="1"><g transform="translate(255.778238, 190.344069)"><g><path d="M 3.46875 0 L 2.25 0 L 2.25 -19.21875 L 3.46875 -19.21875 Z M 3.46875 0 "/></g></g></g><g fill="#000000" fill-opacity="1"><g transform="translate(261.495705, 190.344069)"><g><path d="M 7.671875 0.25 C 5.722656 0.25 4.203125 -0.347656 3.109375 -1.546875 C 2.015625 -2.753906 1.46875 -4.441406 1.46875 -6.609375 C 1.46875 -8.742188 1.992188 -10.457031 3.046875 -11.75 C 4.097656 -13.039062 5.519531 -13.6875 7.3125 -13.6875 C 8.894531 -13.6875 10.140625 -13.132812 11.046875 -12.03125 C 11.960938 -10.925781 12.421875 -9.425781 12.421875 -7.53125 L 12.421875 -6.546875 L 2.75 -6.546875 C 2.769531 -4.703125 3.203125 -3.289062 4.046875 -2.3125 C 4.890625 -1.34375 6.097656 -0.859375 7.671875 -0.859375 C 8.429688 -0.859375 9.101562 -0.910156 9.6875 -1.015625 C 10.269531 -1.128906 11.003906 -1.363281 11.890625 -1.71875 L 11.890625 -0.609375 C 11.140625 -0.273438 10.441406 -0.0507812 9.796875 0.0625 C 9.148438 0.1875 8.441406 0.25 7.671875 0.25 Z M 7.3125 -12.59375 C 6.019531 -12.59375 4.984375 -12.164062 4.203125 -11.3125 C 3.421875 -10.46875 2.960938 -9.242188 2.828125 -7.640625 L 11.125 -7.640625 C 11.125 -9.191406 10.785156 -10.40625 10.109375 -11.28125 C 9.441406 -12.15625 8.507812 -12.59375 7.3125 -12.59375 Z M 7.3125 -12.59375 "/></g></g></g></svg>